<?xml version="1.0" encoding="utf-8"?>
<!-- Generator: Adobe Illustrator 15.0.2, SVG Export Plug-In  -->
<!DOCTYPE svg PUBLIC "-//W3C//DTD SVG 1.1 Tiny//EN" "http://www.w3.org/Graphics/SVG/1.1/DTD/svg11-tiny.dtd" [
	<!ENTITY ns_flows "http://ns.adobe.com/Flows/1.0/">
]>
<svg version="1.1" baseProfile="tiny"
	 xmlns="http://www.w3.org/2000/svg" xmlns:xlink="http://www.w3.org/1999/xlink" xmlns:a="http://ns.adobe.com/AdobeSVGViewerExtensions/3.0/"
	 x="0px" y="0px" width="599px" height="191px" viewBox="0 0 613 197" overflow="visible" xml:space="preserve">
<defs>
</defs>
<path fill="#B5121B" d="M31.5,77.7C20,77.7,12.4,69.4,12.4,60V38.4c0-0.7-0.4-1.2-1.2-1.2H9.3c-1.5,0-2.3-0.8-2.3-2.3V30
	c0-1.5,0.9-2.4,2.3-2.4h1.9c0.7,0,1.2-0.4,1.2-1.2V16c0-1.5,0.8-2.3,2.3-2.3h6.7c1.5,0,2.3,0.9,2.3,2.3v10.5c0,0.8,0.4,1.2,1.2,1.2
	h11.2c1.5,0,2.3,0.9,2.3,2.4v4.9c0,1.5-0.8,2.3-2.3,2.3H24.9c-0.7,0-1.2,0.4-1.2,1.2V60c0,3.7,2.7,7.6,7.7,7.6
	c2.6,0,4.6-1.3,6.3-3.2c1.3-1.4,2.6-1.4,3.9-0.4l4.5,3.1c1.2,0.8,1,2.5,0.2,3.5C43,74.9,37.9,77.7,31.5,77.7"/>
<path fill="#B5121B" d="M89.2,76.6h-6.7c-1.5,0-2.3-0.8-2.3-2.3v-30c0-3.7-2.8-7.6-7.7-7.6c-5,0-7.8,3.9-7.8,7.6v30
	c0,1.5-0.8,2.3-2.3,2.3h-6.7c-1.5,0-2.3-0.8-2.3-2.3V9c0-1.5,0.9-2.3,2.3-2.3h6.7c1.5,0,2.3,0.9,2.3,2.3v17.6c0,0.9,0.5,1.2,1.4,0.9
	c1.8-0.5,3.6-0.9,6.4-0.9c11.4,0,19.1,8.3,19.1,17.7v30C91.6,75.8,90.7,76.6,89.2,76.6"/>
<path fill="#B5121B" d="M128.1,44.3c0-3.7-2.7-7.6-7.7-7.6c-5,0-7.7,3.9-7.7,7.6v1.9c0,0.7,0.4,1.2,1.2,1.2h13.1
	c0.8,0,1.2-0.4,1.2-1.2V44.3z M134.8,56.9h-21c-0.8,0-1.2,0.4-1.2,1.2V60c0,3.7,2.8,7.6,7.7,7.6c4.7,0,6.6-3.1,8.6-6.5
	c0.7-1.2,2-1.3,3.2-0.5l5,3.3c1.3,0.9,0.9,2.4,0.6,3.2c-2,5.2-8,10.6-17.4,10.6c-11.4,0-19.1-8.3-19.1-17.7V44.3
	c0-9.4,7.6-17.7,19.1-17.7c11.4,0,19.1,8.3,19.1,17.7v8C139.4,55.2,137.7,56.9,134.8,56.9"/>
<path fill="#B5121B" d="M37.6,197C15,197,0,180.7,0,162.1v-30.9c0-18.6,15-34.9,37.6-34.9c18.6,0,30.3,10.7,34.3,20.9
	c0.6,1.5,1.2,4.6-1.3,6.2l-9.8,6.5c-2.3,1.5-4.8,1.2-6.2-1.1c-4-6.7-7.7-12.7-16.9-12.7c-9.8,0-15.2,7.7-15.2,15v30.9
	c0,7.3,5.4,15,15.2,15c9.2,0,13-6.1,16.9-12.8c1.5-2.3,4-2.5,6.2-1l9.8,6.5c2.5,1.7,1.9,4.8,1.3,6.3C67.9,186.3,56.2,197,37.6,197"
	/>
<path fill="#B5121B" d="M159.8,194.9h-8.1c-1.7,0-2.9-0.6-3.8-1.9c-1-1.5-2.1-1.2-2.9-0.8c-5.4,2.9-10.9,4.8-18.2,4.8
	c-22.6,0-37.6-16.3-37.6-34.9v-59.1c0-2.9,1.7-4.6,4.6-4.6H107c2.9,0,4.6,1.7,4.6,4.6v59.1c0,7.3,5.4,15,15.2,15
	c9.8,0,15.3-7.7,15.3-15v-59.1c0-2.9,1.6-4.6,4.6-4.6h13.2c2.9,0,4.6,1.7,4.6,4.6v87.3C164.4,193.2,162.7,194.9,159.8,194.9"/>
<path fill="#B5121B" d="M248.8,121.7c-1.7,2.7-4.2,3.3-6.7,1.9c-8.1-5-15.5-7.5-23.4-7.5c-9.8,0-15.3,7.7-15.3,15v59.1
	c0,2.9-1.7,4.6-4.6,4.6h-13.2c-2.9,0-4.6-1.7-4.6-4.6v-59.1c0-18.6,15-34.9,37.6-34.9c14.2,0,27.2,5.6,33.6,10.9
	c2.1,1.7,2.7,4.2,1.3,6.7L248.8,121.7z"/>
<path fill="#B5121B" d="M329.7,121.7c-1.7,2.7-4.2,3.4-6.7,1.9c-8.1-5-15.5-7.5-23.4-7.5c-9.8,0-15.2,7.7-15.2,15v59.1
	c0,2.9-1.7,4.6-4.6,4.6h-13.2c-2.9,0-4.6-1.7-4.6-4.6v-59.1c0-18.6,15-34.9,37.6-34.9c14.2,0,27.2,5.6,33.7,10.9
	c2.1,1.7,2.7,4.2,1.2,6.7L329.7,121.7z"/>
<path fill="#B5121B" d="M395.1,131.1c0-7.3-5.4-15-15.2-15c-9.8,0-15.3,7.7-15.3,15v3.8c0,1.5,0.8,2.3,2.3,2.3h25.9
	c1.5,0,2.3-0.8,2.3-2.3V131.1z M408.2,156h-41.4c-1.5,0-2.3,0.8-2.3,2.3v3.8c0,7.3,5.4,15,15.3,15c9.2,0,12.9-6.1,16.9-12.7
	c1.5-2.3,4-2.5,6.3-1.1l9.8,6.5c2.5,1.7,1.9,4.8,1.3,6.3c-4,10.2-15.7,20.9-34.3,20.9c-22.6,0-37.6-16.3-37.6-34.9v-30.9
	c0-18.6,15-34.9,37.6-34.9c22.6,0,37.6,16.3,37.6,34.9v15.7C417.4,152.7,414.1,156,408.2,156"/>
<path fill="#B5121B" d="M504.1,194.9h-13.2c-2.9,0-4.6-1.7-4.6-4.6v-59.1c0-7.3-5.4-15-15.2-15c-9.8,0-15.3,7.7-15.3,15v59.1
	c0,2.9-1.7,4.6-4.6,4.6h-13.2c-2.9,0-4.6-1.7-4.6-4.6v-87.3c0-2.9,1.7-4.6,4.6-4.6h8.2c1.7,0,2.9,0.6,3.8,1.9c1,1.5,2.1,1.2,2.9,0.8
	c5.4-2.9,10.9-4.8,18.2-4.8c22.5,0,37.6,16.3,37.6,34.9v59.1C508.7,193.2,507,194.9,504.1,194.9"/>
<path fill="#B5121B" d="M567.6,196.9c-22.6,0-37.6-16.3-37.6-34.9v-42.6c0-1.5-0.8-2.3-2.3-2.3h-3.8c-2.9,0-4.6-1.7-4.6-4.6v-9.6
	c0-2.9,1.7-4.6,4.6-4.6h3.8c1.5,0,2.3-0.8,2.3-2.3V75.4c0-2.9,1.7-4.6,4.6-4.6h13.2c2.9,0,4.6,1.7,4.6,4.6V96c0,1.5,0.8,2.3,2.3,2.3
	h22.1c2.9,0,4.6,1.7,4.6,4.6v9.6c0,2.9-1.7,4.6-4.6,4.6h-22.1c-1.5,0-2.3,0.8-2.3,2.3v42.6c0,7.3,5.4,15,15.2,15
	c5.2,0,9-2.5,12.5-6.3c2.5-2.7,5-2.7,7.7-0.8l8.8,6.1c2.3,1.7,1.9,5,0.4,6.9C590.4,191.5,580.3,196.9,567.6,196.9"/>
<path fill="#B5121B" d="M592.9,72.1c-3.7,0-6.2,2.7-6.2,5.8V83c0,3.1,2.5,5.8,6.2,5.8c3.7,0,6.2-2.7,6.2-5.8v-5.1
	C599.1,74.8,596.6,72.1,592.9,72.1z M598.4,82.7c0,2.8-2.2,5.2-5.5,5.2c-3.3,0-5.5-2.4-5.5-5.2v-4.6c0-2.8,2.2-5.2,5.5-5.2
	c3.3,0,5.5,2.4,5.5,5.2V82.7z"/>
<path fill="#B5121B" d="M596.2,78.2c0-1.8-1.4-2.9-3.3-2.9c-2,0-3.3,1.4-3.3,3.3v5.4c0,0.5,0.3,0.7,0.8,0.7c0.5,0,0.8-0.3,0.8-0.7
	v-5.4c0-1.1,0.7-1.9,1.7-1.9c1,0,1.8,0.5,1.8,1.4c0,1-1,1.3-1.8,1.3c-0.4,0-0.7,0.3-0.7,0.7c0,0.4,0.3,0.7,0.7,0.7
	c0.9,0,1.8,0.6,1.8,1.8v1.4c0,0.5,0.3,0.7,0.8,0.7c0.5,0,0.8-0.3,0.8-0.7v-1.4c0-1.4-0.4-1.9-0.9-2.3c-0.2-0.2-0.2-0.3,0-0.4
	C595.6,79.8,596.2,79.3,596.2,78.2z"/>
<g>
	<path fill="#644A2D" d="M214.7,22.6v17h-3l-0.9-3.6c-0.7,1.1-2.7,4.1-7.7,4.1c-7.9,0-11.8-7.1-11.8-15.9c0-4.7,1.1-17,12.4-17
		c8.8,0,10.4,6.3,11,10.9l-6.3,1.1c-0.3-2.4-0.8-6.3-4.5-6.3c-4,0-5.2,4.3-5.2,10.8c0,5.7,0.9,10.6,5.4,10.6c4.1,0,4.2-4.3,4.3-6.3
		h-4.8v-5.5H214.7z"/>
	<path fill="#644A2D" d="M225.3,16.1v5.7c0.6-2,1.7-6,5.5-6c0.5,0,0.8,0,1.1,0.1v6.4c-0.6-0.1-0.9-0.1-1.1-0.1
		c-4.8,0-4.8,5.4-4.8,7.3v10.2h-6.5V16.1H225.3z"/>
	<path fill="#644A2D" d="M239.9,28.9c0,3.2-0.1,6.6,3.2,6.6c2.8,0,3.2-2.5,3.3-4.1l5.9,0.4c-0.5,2.2-1.8,8.2-9.4,8.2
		c-7.2,0-9.8-5.7-9.8-11.9c0-1.5,0.2-5.3,1.8-8.1c1.7-3,4.8-4.5,8-4.5c4.1,0,6.6,2.3,7.7,4.3c1.7,3.2,1.7,6.2,1.7,9.1H239.9z
		 M246.1,25.2c0-1.3,0.1-5.3-3.1-5.3c-3,0-3,3.6-3.1,5.3H246.1z"/>
	<path fill="#644A2D" d="M256.2,22.9c0.2-1.3,0.6-4.2,3.9-6.1c1.7-1,3.6-1.3,5.6-1.3c2.5,0,5.1,0.6,6.8,2.5c1.4,1.4,1.5,4.1,1.5,7
		v9.4c0,4,0.1,4.4,0.4,5.3h-6.1c-0.3-1-0.3-1.5-0.3-3.6c-0.9,1.5-2.4,4.1-6.5,4.1c-3.2,0-6.2-1.8-6.2-6.4c0-6.5,5.1-8.3,12.1-8.6
		v-0.9c0-2.1,0-4.2-2.3-4.2c-2.2,0-2.6,1.8-2.8,3.6L256.2,22.9z M267.5,28.4c-3.8,0.5-5.3,1.4-5.3,4.4c0,1.7,0.6,3,2.2,3
		c0.8,0,1.5-0.4,2.1-1.3c0.9-1.3,1-2.8,1-5V28.4z"/>
	<path fill="#644A2D" d="M286.2,8.6v7.5h4.3v5.2h-4.3v8.6c0,4.4,0,5,4.7,4.7v5c-1,0.2-2.3,0.5-4.1,0.5c-2.1,0-4.5-0.5-5.9-2.4
		c-1.1-1.7-1.1-4.1-1.1-7.1v-9.4h-2.6v-5.2h2.9l0.5-6.9L286.2,8.6z"/>
	<path fill="#644A2D" d="M305.7,16.1h6.2v3.2c0.7-1.3,1.9-3.7,5.7-3.7c4,0,4.7,2.3,5.1,3.7c0.7-1.6,2-3.7,5.8-3.7c6,0,6,4.4,6,8.6
		v15.4H328V24.9c0-2.7,0-4.2-2.1-4.2c-2.4,0-2.5,1.9-2.5,5.3v13.7h-6.5V24.7c0-2.9-0.1-4-2.1-4c-2.3,0-2.5,1.9-2.5,5.2v13.7h-6.5
		V16.1z"/>
	<path fill="#644A2D" d="M345.3,16.1v15.1c0,2.3,0,3.8,2.2,3.8c2.9,0,2.9-1.9,2.9-6.9v-12h6.5v23.5h-6.2v-3.2
		c-1.2,2-2.2,3.7-6.1,3.7c-6,0-6-4.4-6-8.7V16.1H345.3z"/>
	<path fill="#644A2D" d="M372.7,23.1c-0.4-1.2-1.1-3.2-3.4-3.2c-1.5,0-2.1,1.1-2.1,2.1c0,1.9,1.3,2.3,3.9,3.2c3.3,1.1,7,2.4,7,7.2
		c0,3.5-2.4,7.7-8.9,7.7c-7.7,0-8.5-5.3-8.8-7l5.2-0.9c0.2,0.9,0.8,3.5,3.7,3.5c0.7,0,2.6-0.1,2.6-2.2c0-1.9-1.4-2.3-3.8-3.1
		c-2.5-0.8-7.1-2.3-7.1-7.4s4.2-7.5,8.4-7.5c4,0,7.1,2.3,8,6.2L372.7,23.1z"/>
	<path fill="#644A2D" d="M381.3,14.1V7.6h6.6v6.5H381.3z M387.9,16.1v23.5h-6.5V16.1H387.9z"/>
	<path fill="#644A2D" d="M404.2,25c-0.2-3.4-1.1-4.4-2.6-4.4c-2,0-3.3,1.6-3.3,7c0,3.5,0.4,7.3,3.2,7.3c2.1,0,2.6-1.9,2.7-4.3
		l6.1,0.4c-0.3,2.4-1,9.3-9.2,9.3c-8,0-9.4-7.2-9.4-12.2c0-6.4,2.3-12.3,9.7-12.3c2.1,0,4.5,0.4,6.4,2.4c2.2,2.4,2.4,4.7,2.5,6.7
		L404.2,25z"/>
	<path fill="#644A2D" d="M432.6,7.8v31.9h-6.5V7.8H432.6z"/>
	<path fill="#644A2D" d="M437.4,14.1V7.6h6.6v6.5H437.4z M444,16.1v23.5h-6.5V16.1H444z"/>
	<path fill="#644A2D" d="M452.2,16.1l3.2,13.9l3.2-13.9h5.5l-6.5,23.5h-5.2l-6.7-23.5H452.2z"/>
	<path fill="#644A2D" d="M471.7,28.9c0,3.2-0.1,6.6,3.2,6.6c2.8,0,3.2-2.5,3.3-4.1l5.9,0.4c-0.5,2.2-1.8,8.2-9.4,8.2
		c-7.2,0-9.8-5.7-9.8-11.9c0-1.5,0.2-5.3,1.8-8.1c1.7-3,4.8-4.5,8-4.5c4.1,0,6.6,2.3,7.7,4.3c1.7,3.2,1.7,6.2,1.7,9.1H471.7z
		 M477.9,25.2c0-1.3,0.1-5.3-3.1-5.3c-3,0-3,3.6-3.1,5.3H477.9z"/>
	<path fill="#644A2D" d="M498.8,23.1c-0.4-1.2-1.1-3.2-3.4-3.2c-1.5,0-2.1,1.1-2.1,2.1c0,1.9,1.3,2.3,3.9,3.2c3.3,1.1,7,2.4,7,7.2
		c0,3.5-2.4,7.7-8.9,7.7c-7.7,0-8.5-5.3-8.8-7l5.2-0.9c0.2,0.9,0.8,3.5,3.7,3.5c0.7,0,2.6-0.1,2.6-2.2c0-1.9-1.4-2.3-3.8-3.1
		c-2.5-0.8-7.1-2.3-7.1-7.4s4.2-7.5,8.4-7.5c4,0,7.1,2.3,8,6.2L498.8,23.1z"/>
	<path fill="#644A2D" d="M526.2,7.8v10.8c0.7-1.1,2-3,5.8-3c5.9,0,5.9,4.9,5.9,8.9v15.1h-6.5V24.5c0-2.2,0-3.8-2.2-3.8
		c-2.9,0-3,2.1-3,4v14.9h-6.5V7.8H526.2z"/>
	<path fill="#644A2D" d="M548.2,28.9c0,3.2-0.1,6.6,3.2,6.6c2.8,0,3.2-2.5,3.3-4.1l5.9,0.4c-0.5,2.2-1.8,8.2-9.4,8.2
		c-7.2,0-9.8-5.7-9.8-11.9c0-1.5,0.2-5.3,1.8-8.1c1.7-3,4.8-4.5,8-4.5c4.1,0,6.6,2.3,7.7,4.3c1.7,3.2,1.7,6.2,1.7,9.1H548.2z
		 M554.3,25.2c0-1.3,0.1-5.3-3.1-5.3c-3,0-3,3.6-3.1,5.3H554.3z"/>
	<path fill="#644A2D" d="M570.2,16.1v5.7c0.6-2,1.7-6,5.5-6c0.5,0,0.8,0,1.1,0.1v6.4c-0.6-0.1-0.9-0.1-1.1-0.1
		c-4.8,0-4.8,5.4-4.8,7.3v10.2h-6.5V16.1H570.2z"/>
	<path fill="#644A2D" d="M584.8,28.9c0,3.2-0.1,6.6,3.2,6.6c2.8,0,3.2-2.5,3.3-4.1l5.9,0.4c-0.5,2.2-1.8,8.2-9.4,8.2
		c-7.2,0-9.8-5.7-9.8-11.9c0-1.5,0.2-5.3,1.8-8.1c1.7-3,4.8-4.5,8-4.5c4.1,0,6.6,2.3,7.7,4.3c1.7,3.2,1.7,6.2,1.7,9.1H584.8z
		 M591,25.2c0-1.3,0.1-5.3-3.1-5.3c-3,0-3,3.6-3.1,5.3H591z"/>
	 <path fill="#644A2D" d="M605.2,0A5.9,5.9,0,0,0,599,5.8v5.1a6.2,6.2,0,0,0,12.4,0V5.8A5.9,5.9,0,0,0,605.2,0Zm5.5,10.6a5.5,5.5,0,0,1-11,0V6a5.5,5.5,0,0,1,11,0v4.6Z"/>
	 <path fill="#644A2D" d="M608.5,6.1c0-1.8-1.4-2.9-3.3-2.9a3.1,3.1,0,0,0-3.3,3.3v5.4a0.7,0.7,0,0,0,.8.7,0.7,0.7,0,0,0,.8-0.7V6.5a1.7,1.7,0,0,1,1.7-1.9A1.6,1.6,0,0,1,607,6c0,1-1,1.3-1.8,1.3a0.7,0.7,0,1,0,0,1.4,1.7,1.7,0,0,1,1.8,1.8v1.4a0.7,0.7,0,0,0,.8.7,0.7,0.7,0,0,0,.8-0.7V10.5a2.5,2.5,0,0,0-.9-2.3c-0.2-.2-0.2-0.3,0-0.4A1.9,1.9,0,0,0,608.5,6.1Z"/>
</g>
<g>
	<path fill="#644A2D" d="M163.1,33.5h4.1V15.9c0-2.7,0.8-4.8,2.3-6.2c1.5-1.4,3.8-2,6.8-2h13v2.1H189c-2.6,0-4.5,0.5-5.5,1.4
		c-1,0.9-1.5,2.6-1.5,5v17.3h4.1l-11.6,17.2L163.1,33.5z"/>
</g>
</svg>
